# xmcd CD database file
#
# Track frame offsets:
#	150
#	17710
#	37674
#	49309
#	63831
#	80529
#	96933
#	129613
#	165870
#	184593
#	212308
#	239960
#	258252
#	305066
#
# Disc length: 4418 seconds
#
# Revision: 0
# Processed by: cddbd v1.5PL3 Copyright (c) Steve Scherf et al.
# Submitted via: CDex 1.51
#
DISCID=b411400e
DTITLE=James Cotton - Midnight Creeper Disc 2
DYEAR=2002
DGENRE=Blues
TTITLE0=I Can't Quit You Baby
TTITLE1=Sweet Sixteen
TTITLE2=Midnight Creeper
TTITLE3=(I'm Your) Hoochie Coochie Man
TTITLE4=Stormy Monday
TTITLE5=Work Song
TTITLE6=Dealing With the Devil
TTITLE7=Turn on Your Love Light-Please, Please, Please
TTITLE8=You're So Fine
TTITLE9=It Was a Very Good Year
TTITLE10=Mystery Train
TTITLE11=She's My Baby
TTITLE12=One More Mile
TTITLE13=How Sweet It Is
EXTD=YEAR: 2002
EXTT0=
EXTT1=
EXTT2=
EXTT3=
EXTT4=
EXTT5=
EXTT6=
EXTT7=
EXTT8=
EXTT9=
EXTT10=
EXTT11=
EXTT12=
EXTT13=
PLAYORDER=
